<svg xmlns="http://www.w3.org/2000/svg" viewBox="0 0 800 600">
  <rect width="800" height="600" fill="#D4CBC0"/>
  <rect x="48" y="78" width="484" height="384" fill="#FAF8F5"/>
  <rect x="48" y="78" width="484" height="384" fill="white" opacity="0.25"/>
  <line x1="58" y1="98" x2="524" y2="106" stroke="#E0D5C5" stroke-width="1.5" opacity="0.6"/>
  <line x1="58" y1="128" x2="524" y2="134" stroke="#E0D5C5" stroke-width="1.5" opacity="0.5"/>
  <line x1="58" y1="158" x2="524" y2="163" stroke="#E0D5C5" stroke-width="1.5" opacity="0.6"/>
  <line x1="58" y1="188" x2="524" y2="195" stroke="#E0D5C5" stroke-width="1.5" opacity="0.5"/>
  <line x1="58" y1="218" x2="524" y2="224" stroke="#E0D5C5" stroke-width="1.5" opacity="0.6"/>
  <line x1="58" y1="248" x2="524" y2="256" stroke="#E0D5C5" stroke-width="1.5" opacity="0.5"/>
  <line x1="58" y1="278" x2="524" y2="283" stroke="#E0D5C5" stroke-width="1.5" opacity="0.6"/>
  <line x1="58" y1="308" x2="524" y2="314" stroke="#E0D5C5" stroke-width="1.5" opacity="0.5"/>
  <line x1="58" y1="338" x2="524" y2="345" stroke="#E0D5C5" stroke-width="1.5" opacity="0.6"/>
  <line x1="58" y1="368" x2="524" y2="373" stroke="#E0D5C5" stroke-width="1.5" opacity="0.5"/>
  <line x1="58" y1="398" x2="524" y2="406" stroke="#E0D5C5" stroke-width="1.5" opacity="0.6"/>
  <line x1="58" y1="428" x2="524" y2="434" stroke="#E0D5C5" stroke-width="1.5" opacity="0.5"/>
  <rect x="542" y="128" width="215" height="18" fill="#6B6F7A" transform="rotate(-2 542 128)"/>
  <rect x="550" y="146" width="195" height="215" fill="#C4956A" opacity="0.85" transform="rotate(-2 542 128)"/>
  <rect x="555" y="150" width="190" height="6" fill="#A87A52" opacity="0.5" transform="rotate(-2 542 128)"/>
  <rect x="730" y="78" width="24" height="155" fill="#5C3D28" transform="rotate(-2 730 78)"/>
  <ellipse cx="676" cy="500" rx="58" ry="18" fill="#C4B8AC"/>
  <rect x="618" y="420" width="116" height="82" fill="#D4CBC0"/>
  <ellipse cx="676" cy="420" rx="58" ry="16" fill="#FAF8F5"/>
  <ellipse cx="676" cy="418" rx="52" ry="12" fill="#FAFAF8"/>
  <rect x="0" y="545" width="800" height="55" fill="#3D4451" opacity="0.85"/>
  <text x="400" y="580" text-anchor="middle" font-family="Georgia,serif" font-size="20" fill="white">Enduit de lissage — Brionne</text>
</svg>
