<svg xmlns="http://www.w3.org/2000/svg" viewBox="0 0 800 600">
  <rect width="800" height="600" fill="#C8DAE8"/>
  <rect x="0" y="515" width="800" height="85" fill="#8AAA8A"/>
  <rect x="100" y="200" width="600" height="335" fill="#F5F4F0"/>
  <polygon points="80,200 400,62 720,200" fill="#5C5550"/>
  <line x1="100" y1="200" x2="100" y2="535" stroke="#3D2818" stroke-width="12"/>
  <line x1="700" y1="200" x2="700" y2="535" stroke="#3D2818" stroke-width="12"/>
  <line x1="100" y1="200" x2="700" y2="200" stroke="#3D2818" stroke-width="10"/>
  <line x1="100" y1="340" x2="700" y2="340" stroke="#3D2818" stroke-width="8"/>
  <line x1="100" y1="445" x2="700" y2="445" stroke="#3D2818" stroke-width="8"/>
  <line x1="250" y1="200" x2="250" y2="535" stroke="#3D2818" stroke-width="8"/>
  <line x1="400" y1="200" x2="400" y2="535" stroke="#3D2818" stroke-width="8"/>
  <line x1="550" y1="200" x2="550" y2="535" stroke="#3D2818" stroke-width="8"/>
  <line x1="100" y1="200" x2="250" y2="340" stroke="#3D2818" stroke-width="5"/>
  <line x1="250" y1="200" x2="100" y2="340" stroke="#3D2818" stroke-width="5"/>
  <line x1="550" y1="200" x2="700" y2="340" stroke="#3D2818" stroke-width="5"/>
  <line x1="700" y1="200" x2="550" y2="340" stroke="#3D2818" stroke-width="5"/>
  <rect x="330" y="400" width="140" height="135" fill="#C4956A" opacity="0.85"/>
  <rect x="340" y="410" width="52" height="78" fill="#A87A52"/>
  <rect x="408" y="410" width="52" height="78" fill="#A87A52"/>
  <circle cx="397" cy="482" r="5" fill="#F5F4F0"/>
  <rect x="128" y="228" width="98" height="88" fill="#C8DCF0" stroke="#3D2818" stroke-width="3"/>
  <line x1="177" y1="228" x2="177" y2="316" stroke="#3D2818" stroke-width="2.5"/>
  <line x1="128" y1="272" x2="226" y2="272" stroke="#3D2818" stroke-width="2.5"/>
  <rect x="574" y="228" width="98" height="88" fill="#C8DCF0" stroke="#3D2818" stroke-width="3"/>
  <line x1="623" y1="228" x2="623" y2="316" stroke="#3D2818" stroke-width="2.5"/>
  <line x1="574" y1="272" x2="672" y2="272" stroke="#3D2818" stroke-width="2.5"/>
  <rect x="108" y="226" width="20" height="92" fill="#C4956A"/>
  <rect x="226" y="226" width="20" height="92" fill="#C4956A"/>
  <rect x="554" y="226" width="20" height="92" fill="#C4956A"/>
  <rect x="672" y="226" width="20" height="92" fill="#C4956A"/>
  <rect x="0" y="545" width="800" height="55" fill="#3D4451" opacity="0.85"/>
  <text x="400" y="580" text-anchor="middle" font-family="Georgia,serif" font-size="20" fill="white">Façade colombages normands — Bernay</text>
</svg>
