<svg xmlns="http://www.w3.org/2000/svg" viewBox="0 0 800 600">
  <rect width="800" height="600" fill="#D6E8D8"/>
  <rect x="0" y="440" width="800" height="160" fill="#C4B8AC"/>
  <line x1="0" y1="440" x2="800" y2="440" stroke="#A89E98" stroke-width="2"/>
  <rect x="0" y="0" width="800" height="48" fill="#C8DAC9"/>
  <rect x="200" y="290" width="400" height="160" fill="#FAF8F5"/>
  <rect x="200" y="265" width="400" height="55" fill="#F0EAE0"/>
  <rect x="196" y="218" width="408" height="78" fill="#E0D5C5"/>
  <rect x="220" y="278" width="135" height="58" fill="white" stroke="#E0D5C5" stroke-width="2"/>
  <rect x="445" y="278" width="135" height="58" fill="white" stroke="#E0D5C5" stroke-width="2"/>
  <rect x="200" y="365" width="400" height="95" fill="#F5F0E8"/>
  <rect x="88" y="310" width="105" height="100" fill="#E0D5C5"/>
  <rect x="607" y="310" width="105" height="100" fill="#E0D5C5"/>
  <rect x="335" y="82" width="130" height="110" fill="#D8EEF8" stroke="#C8D8CA" stroke-width="2"/>
  <line x1="400" y1="82" x2="400" y2="192" stroke="#C8DCCA" stroke-width="2"/>
  <line x1="335" y1="137" x2="465" y2="137" stroke="#C8DCCA" stroke-width="2"/>
  <rect x="0" y="545" width="800" height="55" fill="#3D4451" opacity="0.85"/>
  <text x="400" y="580" text-anchor="middle" font-family="Georgia,serif" font-size="20" fill="white">Chambre — Vert sauge</text>
</svg>
