<svg xmlns="http://www.w3.org/2000/svg" viewBox="0 0 800 600">
  <rect width="800" height="600" fill="#F5F4F0"/>
  <rect x="0" y="0" width="800" height="52" fill="#EEECE6"/>
  <line x1="0" y1="52" x2="800" y2="52" stroke="#D6D4CE" stroke-width="2"/>
  <rect x="0" y="430" width="800" height="170" fill="#D4CBC0"/>
  <line x1="0" y1="430" x2="800" y2="430" stroke="#C4B8AC" stroke-width="2"/>
  <rect x="160" y="360" width="480" height="80" fill="#E0D5C5"/>
  <rect x="160" y="325" width="480" height="55" fill="#D4CBC0"/>
  <rect x="160" y="315" width="55" height="130" fill="#D4CBC0"/>
  <rect x="585" y="315" width="55" height="130" fill="#D4CBC0"/>
  <rect x="215" y="330" width="85" height="38" fill="#3D4451" opacity="0.7"/>
  <rect x="316" y="330" width="85" height="38" fill="#C4956A" opacity="0.7"/>
  <rect x="417" y="330" width="85" height="38" fill="#3D4451" opacity="0.4"/>
  <rect x="275" y="398" width="250" height="28" fill="#C4B8AC"/>
  <rect x="290" y="424" width="10" height="18" fill="#A89E98"/>
  <rect x="500" y="424" width="10" height="18" fill="#A89E98"/>
  <rect x="180" y="100" width="170" height="130" fill="white" stroke="#D6D4CE" stroke-width="2"/>
  <rect x="190" y="110" width="150" height="110" fill="#EBE9E2"/>
  <ellipse cx="265" cy="165" rx="50" ry="35" fill="#C4956A" opacity="0.3"/>
  <polygon points="590,98 628,195 552,195" fill="#EEECE6"/>
  <rect x="607" y="195" width="7" height="125" fill="#D4CBC0"/>
  <rect x="0" y="545" width="800" height="55" fill="#3D4451" opacity="0.85"/>
  <text x="400" y="580" text-anchor="middle" font-family="Georgia,serif" font-size="20" fill="white">Peinture intérieure — Salon</text>
</svg>
