<svg xmlns="http://www.w3.org/2000/svg" viewBox="0 0 800 600">
  <defs>
    <pattern id="pp" x="0" y="0" width="160" height="200" patternUnits="userSpaceOnUse">
      <rect width="160" height="200" fill="#2A2A2A"/>
      <ellipse cx="80" cy="100" rx="14" ry="38" fill="#3D4451" opacity="0.7"/>
      <ellipse cx="80" cy="100" rx="38" ry="14" fill="#3D4451" opacity="0.5"/>
      <ellipse cx="40" cy="58" rx="9" ry="28" fill="#4A5568" opacity="0.5" transform="rotate(-30 40 58)"/>
      <ellipse cx="120" cy="142" rx="9" ry="28" fill="#4A5568" opacity="0.5" transform="rotate(-30 120 142)"/>
      <ellipse cx="28" cy="138" rx="7" ry="22" fill="#3D4451" opacity="0.4" transform="rotate(20 28 138)"/>
      <ellipse cx="132" cy="58" rx="7" ry="22" fill="#3D4451" opacity="0.4" transform="rotate(20 132 58)"/>
      <circle cx="80" cy="100" r="7" fill="#C4956A" opacity="0.7"/>
      <circle cx="40" cy="58" r="4" fill="#C4956A" opacity="0.5"/>
      <circle cx="120" cy="142" r="4" fill="#C4956A" opacity="0.5"/>
    </pattern>
  </defs>
  <rect width="800" height="600" fill="url(#pp)"/>
  <line x1="362" y1="0" x2="362" y2="600" stroke="#F5F4F0" stroke-width="5" opacity="0.7"/>
  <line x1="522" y1="0" x2="522" y2="600" stroke="#F5F4F0" stroke-width="5" opacity="0.7"/>
  <rect x="0" y="520" width="800" height="80" fill="#C4B8AC"/>
  <line x1="0" y1="540" x2="800" y2="540" stroke="#A89E98" stroke-width="2"/>
  <line x1="200" y1="520" x2="200" y2="600" stroke="#A89E98" stroke-width="1.5"/>
  <line x1="400" y1="520" x2="400" y2="600" stroke="#A89E98" stroke-width="1.5"/>
  <line x1="600" y1="520" x2="600" y2="600" stroke="#A89E98" stroke-width="1.5"/>
  <rect x="618" y="348" width="58" height="118" fill="#F5F4F0" stroke="#D6D4CE" stroke-width="2"/>
  <rect x="623" y="353" width="48" height="108" fill="url(#pp)" opacity="0.6"/>
  <rect x="613" y="343" width="9" height="128" fill="#6B6F7A"/>
  <rect x="675" y="343" width="9" height="128" fill="#6B6F7A"/>
  <rect x="0" y="545" width="800" height="55" fill="#3D4451" opacity="0.85"/>
  <text x="400" y="580" text-anchor="middle" font-family="Georgia,serif" font-size="20" fill="white">Papier peint panoramique — Louviers</text>
</svg>
