<svg xmlns="http://www.w3.org/2000/svg" viewBox="0 0 800 600">
  <rect width="800" height="600" fill="#EEECE6"/>
  <rect x="148" y="78" width="504" height="444" fill="#2A2A2A"/>
  <rect x="163" y="93" width="474" height="414" fill="#C8DCF0"/>
  <rect x="173" y="103" width="222" height="394" fill="#D8EEF8"/>
  <rect x="405" y="103" width="222" height="394" fill="#D8EEF8"/>
  <line x1="163" y1="303" x2="637" y2="303" stroke="#4A6A80" stroke-width="3"/>
  <line x1="188" y1="113" x2="208" y2="175" stroke="white" stroke-width="4" opacity="0.4"/>
  <line x1="420" y1="113" x2="440" y2="175" stroke="white" stroke-width="4" opacity="0.4"/>
  <rect x="18" y="78" width="130" height="444" fill="#C4956A"/>
  <line x1="18" y1="128" x2="148" y2="128" stroke="#A87A52" stroke-width="3"/>
  <line x1="18" y1="173" x2="148" y2="173" stroke="#A87A52" stroke-width="3"/>
  <line x1="18" y1="218" x2="148" y2="218" stroke="#A87A52" stroke-width="3"/>
  <line x1="18" y1="263" x2="148" y2="263" stroke="#A87A52" stroke-width="3"/>
  <line x1="18" y1="308" x2="148" y2="308" stroke="#A87A52" stroke-width="3"/>
  <line x1="18" y1="353" x2="148" y2="353" stroke="#A87A52" stroke-width="3"/>
  <line x1="18" y1="398" x2="148" y2="398" stroke="#A87A52" stroke-width="3"/>
  <line x1="18" y1="443" x2="148" y2="443" stroke="#A87A52" stroke-width="3"/>
  <circle cx="143" cy="303" r="7" fill="#6B6F7A"/>
  <rect x="652" y="78" width="130" height="444" fill="#C4956A"/>
  <line x1="652" y1="128" x2="782" y2="128" stroke="#A87A52" stroke-width="3"/>
  <line x1="652" y1="173" x2="782" y2="173" stroke="#A87A52" stroke-width="3"/>
  <line x1="652" y1="218" x2="782" y2="218" stroke="#A87A52" stroke-width="3"/>
  <line x1="652" y1="263" x2="782" y2="263" stroke="#A87A52" stroke-width="3"/>
  <line x1="652" y1="308" x2="782" y2="308" stroke="#A87A52" stroke-width="3"/>
  <line x1="652" y1="353" x2="782" y2="353" stroke="#A87A52" stroke-width="3"/>
  <line x1="652" y1="398" x2="782" y2="398" stroke="#A87A52" stroke-width="3"/>
  <line x1="652" y1="443" x2="782" y2="443" stroke="#A87A52" stroke-width="3"/>
  <circle cx="657" cy="303" r="7" fill="#6B6F7A"/>
  <rect x="0" y="545" width="800" height="55" fill="#3D4451" opacity="0.85"/>
  <text x="400" y="580" text-anchor="middle" font-family="Georgia,serif" font-size="20" fill="white">Volets et boiseries — Terracotta</text>
</svg>
